<?xml version="1.0" encoding="UTF-8"?>
<svg id="svg13466" xmlns="http://www.w3.org/2000/svg" width="200" height="200" viewBox="0 0 200 200">
  <defs>
    <style>
      .cls-1 {
        fill: #005bc8;
      }

      .cls-2 {
        fill: #fff;
      }
    </style>
  </defs>
  <rect class="cls-1" width="200" height="200"/>
  <path id="path13161" class="cls-2" d="m32.66,151.4h72.84c12.69,0,19.65-1.2,23.72-3.83,5.03-3.12,7.91-8.38,7.91-14.61,0-7.43-3.84-13.9-10.3-17.02-3.35-1.91-9.59-2.88-17.26-2.88h-29.47c-19.16,0-31.63-3.35-40.01-10.54-9.59-8.39-15.09-21.33-15.09-35.22,0-20.37,11.26-38.1,27.79-43.85,7.19-2.64,15.57-3.35,34.26-3.35h79.07v28.51h-71.41c-15.1.24-16.3.24-21.32,1.44-6.71,1.67-10.78,7.9-10.78,16.29,0,7.2,3.35,12.95,9.11,15.58,4.79,2.16,8.62,2.63,20.13,2.63h25.64c23.48,0,36.18,3.6,45.53,13.18,7.19,7.18,11.98,21.33,11.98,35.23,0,17.01-7.91,32.82-20.37,40.49-7.9,5.03-17.96,6.46-41.69,6.46H32.66v-28.51h0Z"/>
</svg>